<?xml version="1.0" encoding="UTF-8"?>
<svg id="Layer_1" data-name="Layer 1" xmlns="http://www.w3.org/2000/svg" viewBox="0 0 1080 1080">
  <defs>
    <style>
      .cls-1 {
        fill: #13083a;
      }

      .cls-2 {
        fill: #fff;
      }
    </style>
  </defs>
  <rect class="cls-1" x="-31.43" y="-30.35" width="1185.01" height="1185.01"/>
  <g>
    <path class="cls-2" d="M657.1,320.76l-192.9-111.38-.08,375.56-43.43,24.79-.05-476.43,324.84,187.34-148.76,85.92-43.56-25.52,103.93-60.28ZM552.34,483.59l-.2-173.15-43.73-25,.08,273.98,325.24-188.17-43.88-25.15-237.52,137.49Z"/>
    <path class="cls-2" d="M93.72,659.71h892.55v11.91H93.72v-11.91ZM753.07,696.56c-4.49-.97-8.66-.86-13.08-.05l-.48,133.79-73.77-129.54c-2.07-3.63-3.17-6.25-9.04-4.54v183.3s13.14-.1,13.14-.1l.15-133.15,76.24,132.17c1.16,2.01,5.45,2.07,6.78.29l.05-182.17ZM511.17,849.59l-30.12-153.16c-5.68-.72-10.62-.65-16.81,0l36.6,182.96,16.96-.05,32.73-182.74c-3.86-.8-7.75-1.42-12.19.39l-27.16,152.61ZM862.02,869.33l-69.81-.26,72.03-172.9-90.14-.11c-.69,3.82-.76,6.55-.16,10.29l70.12.06-71.77,173.24h89.98c.53-3.74.63-6.75-.26-10.32ZM620.86,777.23l-39.95-.02-.04-70.86,50.81-.09c.9-3.59.92-6.45-.08-10.16l-65.64.03-.24,183.56,66.43-.15.05-10.23-51.19-.16-.17-81.32,40.4-.21c.35-4.61.53-7.4-.39-10.38ZM102.33,931.69h256.43v-2.74H102.33v2.74ZM729.85,931.69h256.43v-2.74h-256.43v2.74ZM369.14,693.73c-52.3,0-94.7,42.4-94.7,94.7s42.4,94.7,94.7,94.7,94.7-42.4,94.7-94.7-42.4-94.7-94.7-94.7ZM436.11,824.31c-9.85,27.81-33.69,44.68-62.11,46.6-33.96,2.29-63.26-17.59-73.38-50.26-12.23-39.5-1.74-89.58,36.09-108.65,19.58-9.87,43.11-10.45,63.06-1.06,39.48,18.58,50.89,72.26,36.34,113.37ZM267.1,879.28l-35.24-79.41c31.75-9.98,38.46-47.47,28.62-78.23-10.28-26.57-39.75-34.47-66.27-24.83l-.13,182.74,15.82-.04.02-77.43c2.08-.98,7.23-1.36,8.11.13l33.22,77.52,15.85-.44ZM245.63,720.28c7.14,23.52,6.24,59.87-14.73,69.03-6.88,3.01-14.02,4.03-21.07,3.59l.02-92.82c15.61-4.36,30.96,4.3,35.79,20.2ZM959.89,879.5l17.59.03-48.76-183.13c-.37-1.39-5.53-1.17-5.88.13l-19.44,72.19-29.65,110.87,11.96-.19,11.48-47.15,50.02-.06,12.7,47.32ZM944.72,822.82l-45.37.44,23.94-87.66,21.42,87.22ZM168.03,782.56c9.27-18.83,10.07-40.45,2.8-60.11-10.67-25.99-40.14-34.03-65.79-23.24l-.03,180.27,15.97.13.27-75.42c20.32,1.28,36.84-6.07,46.78-21.62ZM158.72,767.89c-3.86,19.31-17.44,28.39-37.73,27.25l.04-92.99c16.13-3.98,30.59,4.34,35.42,19.62,4.69,14.83,5.36,30.66,2.27,46.12ZM407.08,945.69c1.97-.66,3.7-1.64,5.17-2.94l-1.86-2.48c-1.33,1.27-2.78,2.17-4.36,2.7-1.58.53-3.25.8-5.02.8-1.89,0-3.63-.32-5.24-.95-1.61-.63-3.01-1.53-4.2-2.7-1.19-1.16-2.12-2.53-2.79-4.09-.66-1.56-.99-3.26-.99-5.09s.33-3.56.99-5.11c.66-1.55,1.59-2.9,2.79-4.07,1.19-1.16,2.59-2.06,4.2-2.7,1.61-.63,3.37-.95,5.28-.95,1.8,0,3.48.28,5.04.84,1.56.56,2.99,1.49,4.29,2.79l2.03-2.08c-1.39-1.5-3.06-2.62-5.02-3.36-1.96-.74-4.12-1.11-6.48-1.11s-4.53.39-6.52,1.17-3.72,1.88-5.2,3.29c-1.47,1.41-2.62,3.08-3.43,5-.81,1.92-1.22,4.01-1.22,6.28s.4,4.36,1.22,6.28c.81,1.92,1.95,3.58,3.41,5,1.46,1.42,3.18,2.51,5.17,3.29,1.99.78,4.16,1.17,6.52,1.17,2.15,0,4.22-.33,6.19-.99ZM412.26,930.94h-3.14v11.41l3.14.4v-11.81ZM422.16,946.42l13-29.06h-1.33l13,29.06h3.45l-14.15-30.96h-3.23l-14.15,30.96h3.41ZM444.28,938.15l-.97-2.65h-18l-.97,2.65h19.95ZM472.69,945.52c1.69-.78,2.96-1.81,3.78-3.1.83-1.28,1.24-2.68,1.24-4.18,0-1.62-.35-2.93-1.04-3.94-.69-1-1.61-1.81-2.74-2.41-1.14-.6-2.37-1.1-3.72-1.48-1.34-.38-2.69-.74-4.05-1.06-1.36-.32-2.6-.69-3.74-1.1-1.14-.41-2.05-.99-2.74-1.73-.69-.74-1.04-1.71-1.04-2.92,0-1.06.29-2.01.86-2.85.58-.84,1.47-1.51,2.68-2.01,1.21-.5,2.74-.75,4.6-.75,1.39,0,2.82.21,4.31.62,1.49.41,2.9,1.06,4.22,1.95l1.11-2.61c-1.24-.85-2.71-1.53-4.42-2.01-1.71-.49-3.44-.73-5.18-.73-2.62,0-4.78.39-6.46,1.17s-2.93,1.81-3.74,3.1c-.81,1.28-1.22,2.69-1.22,4.22,0,1.65.35,2.98,1.04,4,.69,1.02,1.61,1.84,2.74,2.45,1.14.62,2.38,1.11,3.74,1.48,1.36.37,2.71.71,4.07,1.04,1.36.32,2.59.7,3.71,1.13,1.12.43,2.03,1.01,2.72,1.75.69.74,1.04,1.71,1.04,2.92,0,1-.29,1.92-.86,2.74-.57.83-1.47,1.48-2.7,1.97s-2.81.73-4.75.73-3.97-.36-5.82-1.08c-1.84-.72-3.31-1.61-4.4-2.68l-1.28,2.52c1.15,1.18,2.78,2.14,4.89,2.9s4.31,1.13,6.61,1.13c2.65,0,4.83-.39,6.52-1.17ZM495.89,946.42v-28.13h10.88v-2.83h-25.03v2.83h10.88v28.13h3.27ZM517.47,946.42v-11.32l-1.46,1.5h9.77c2.62,0,4.88-.42,6.77-1.26,1.89-.84,3.34-2.05,4.36-3.63,1.02-1.58,1.53-3.46,1.53-5.64,0-3.33-1.13-5.93-3.38-7.81-2.26-1.87-5.34-2.81-9.27-2.81h-11.59v30.96h3.27ZM517.47,916.75l-1.46,1.55h9.68c3.1,0,5.45.68,7.05,2.03,1.61,1.36,2.41,3.27,2.41,5.75s-.8,4.35-2.41,5.71c-1.61,1.36-3.96,2.03-7.05,2.03h-9.68l1.46,1.55v-18.62ZM538.92,946.42l-8-11.23h-3.54l7.96,11.23h3.58ZM568.37,945.52c1.98-.78,3.69-1.88,5.15-3.29,1.46-1.41,2.59-3.08,3.4-5s1.22-4.01,1.22-6.28-.41-4.36-1.22-6.28c-.81-1.92-1.95-3.58-3.4-5-1.46-1.42-3.18-2.51-5.15-3.29s-4.13-1.17-6.46-1.17-4.52.39-6.5,1.17-3.69,1.89-5.15,3.32c-1.46,1.43-2.6,3.1-3.41,5s-1.22,3.99-1.22,6.26.4,4.36,1.22,6.26,1.95,3.57,3.41,5,3.18,2.54,5.17,3.32c1.99.78,4.15,1.17,6.48,1.17s4.48-.39,6.46-1.17ZM556.74,942.82c-1.59-.63-2.98-1.53-4.16-2.7-1.18-1.16-2.09-2.53-2.74-4.09-.65-1.56-.97-3.26-.97-5.09s.32-3.56.97-5.11c.65-1.55,1.56-2.9,2.74-4.07,1.18-1.16,2.56-2.06,4.16-2.7s3.32-.95,5.17-.95,3.58.32,5.15.95,2.95,1.53,4.11,2.7c1.16,1.16,2.07,2.52,2.72,4.07.65,1.55.97,3.25.97,5.11s-.33,3.56-.97,5.11c-.65,1.55-1.56,2.9-2.72,4.07s-2.54,2.06-4.11,2.7c-1.58.63-3.29.95-5.15.95s-3.58-.32-5.17-.95ZM615.73,946.42c3.89,0,6.8-.72,8.73-2.17,1.93-1.44,2.9-3.48,2.9-6.1,0-1.77-.4-3.25-1.19-4.44s-1.91-2.09-3.34-2.7c-1.43-.6-3.13-.91-5.11-.91l-.75,1.06c1.59,0,3.06-.29,4.4-.88,1.34-.59,2.4-1.46,3.18-2.61s1.17-2.56,1.17-4.25c0-2.53-.95-4.5-2.85-5.88-1.9-1.38-4.58-2.08-8.03-2.08h-13.36v30.96h14.24ZM604.77,918.16h9.86c2.48,0,4.4.46,5.77,1.39,1.37.93,2.06,2.34,2.06,4.22s-.69,3.26-2.06,4.2c-1.37.94-3.29,1.42-5.77,1.42h-10.22v2.7h11.28c2.71,0,4.79.46,6.24,1.39,1.44.93,2.17,2.4,2.17,4.4s-.72,3.52-2.17,4.44c-1.45.93-3.52,1.39-6.24,1.39h-10.92v-25.56ZM635.33,946.42l13-29.06h-1.33l13,29.06h3.45l-14.15-30.96h-3.23l-14.15,30.96h3.41ZM657.44,938.15l-.97-2.65h-18l-.97,2.65h19.95ZM674.06,946.42v-11.32l-1.46,1.5h9.77c2.62,0,4.88-.42,6.77-1.26,1.89-.84,3.34-2.05,4.36-3.63,1.02-1.58,1.53-3.46,1.53-5.64,0-3.33-1.13-5.93-3.38-7.81-2.26-1.87-5.34-2.81-9.27-2.81h-11.59v30.96h3.27ZM674.06,916.75l-1.46,1.55h9.68c3.1,0,5.45.68,7.05,2.03,1.61,1.36,2.41,3.27,2.41,5.75s-.8,4.35-2.41,5.71c-1.61,1.36-3.96,2.03-7.05,2.03h-9.68l1.46,1.55v-18.62ZM695.51,946.42l-8-11.23h-3.54l7.96,11.23h3.58Z"/>
  </g>
</svg>